<svg width="512" height="512" viewBox="0 0 512 512" fill="none" xmlns="http://www.w3.org/2000/svg">
  <rect width="512" height="512" rx="128" fill="#1a1b26"/>
  <path d="M128 128C128 114.745 138.745 104 152 104H360C373.255 104 384 114.745 384 128V384C384 397.255 373.255 408 360 408H152C138.745 408 128 397.255 128 384V128Z" fill="#414868"/>
  <path d="M176 152C176 145.373 181.373 140 188 140H324C330.627 140 336 145.373 336 152V168C336 174.627 330.627 180 324 180H188C181.373 180 176 174.627 176 168V152Z" fill="#7aa2f7"/>
  <path d="M176 208C176 201.373 181.373 196 188 196H324C330.627 196 336 201.373 336 208V224C336 230.627 330.627 236 324 236H188C181.373 236 176 230.627 176 224V208Z" fill="#9ece6a"/>
  <path d="M176 264C176 257.373 181.373 252 188 252H324C330.627 252 336 257.373 336 264V280C336 286.627 330.627 292 324 292H188C181.373 292 176 286.627 176 280V264Z" fill="#f7768e"/>
  <path d="M176 320C176 313.373 181.373 308 188 308H324C330.627 308 336 313.373 336 320V336C336 342.627 330.627 348 324 348H188C181.373 348 176 342.627 176 336V320Z" fill="#bb9af7"/>
</svg> 